<svg width="245" height="245" xmlns="http://www.w3.org/2000/svg" xmlns:xlink="http://www.w3.org/1999/xlink" xml:space="preserve" overflow="hidden"><g transform="translate(-38 -2065)"><path d="M40.5001 2187.5C40.5001 2121.23 94.2259 2067.5 160.5 2067.5 226.774 2067.5 280.5 2121.23 280.5 2187.5 280.5 2253.77 226.774 2307.5 160.5 2307.5 94.2259 2307.5 40.5001 2253.77 40.5001 2187.5Z" stroke="#172C51" stroke-width="4.58333" stroke-miterlimit="8" fill="#2F5597" fill-rule="evenodd"/><path d="M93.9998 2186C93.9998 2148.44 124.221 2118 161.5 2118 198.779 2118 229 2148.44 229 2186 229 2223.56 198.779 2254 161.5 2254 124.221 2254 93.9998 2223.56 93.9998 2186Z" fill="#FFFFFF" fill-rule="evenodd"/><path d="M73.9999 2186.5C73.9999 2138.18 112.951 2099 161 2099 209.049 2099 248 2138.18 248 2186.5 248 2234.82 209.049 2274 161 2274 112.951 2274 73.9999 2234.82 73.9999 2186.5ZM83.3001 2186.5C83.3001 2229.69 118.087 2264.7 161 2264.7 203.912 2264.7 238.7 2229.69 238.7 2186.5 238.7 2143.31 203.912 2108.3 161 2108.3 118.087 2108.3 83.3001 2143.31 83.3001 2186.5Z" fill="#FFFFFF" fill-rule="evenodd"/><g><g><g><path d="M35.3922 72.2257 62.3767 72.2257 62.3767 99.5305 35.3922 99.5305Z" fill="#002060" transform="matrix(1 0 0 1.01723 83.8889 2099.96)"/><path d="M93.2848 71.8253 120.269 71.8253 120.269 99.9308 93.2848 99.9308Z" fill="#002060" transform="matrix(1 0 0 1.01723 83.8889 2099.96)"/><path d="M62.8571 46.1219 92.1638 46.1219 92.1638 70.9445 62.8571 70.9445Z" fill="#002060" transform="matrix(1 0 0 1.01723 83.8889 2099.96)"/><path d="M63.0173 100.331 93.2047 100.331 93.2047 124.433 63.0173 124.433Z" fill="#002060" transform="matrix(1 0 0 1.01723 83.8889 2099.96)"/><path d="M35.232 49.8049C35.232 47.3728 37.2036 45.4013 39.6356 45.4013L116.186 45.4013C118.618 45.4013 120.59 47.3728 120.59 49.8049L120.59 120.269C120.59 122.702 118.618 124.673 116.186 124.673L39.6356 124.673C37.2036 124.673 35.232 122.702 35.232 120.269Z" stroke="#002060" stroke-width="2.202" stroke-miterlimit="8" fill="none" fill-rule="evenodd" transform="matrix(1 0 0 1.01723 83.8889 2099.96)"/><path d="M62.2166 45.4013 62.7671 124.398" stroke="#002060" stroke-width="2.202" stroke-miterlimit="8" fill="none" fill-rule="evenodd" transform="matrix(1 0 0 1.01723 83.8889 2099.96)"/><path d="M92.8844 45.7216 93.4353 124.718" stroke="#002060" stroke-width="2.202" stroke-miterlimit="8" fill="none" fill-rule="evenodd" transform="matrix(1 0 0 1.01723 83.8889 2099.96)"/><path d="M35.232 71.6651 120.927 71.6651" stroke="#002060" stroke-width="2.202" stroke-miterlimit="8" fill="none" fill-rule="evenodd" transform="matrix(1 0 0 1.01723 83.8889 2099.96)"/><path d="M35.0719 99.9308 120.767 99.9308" stroke="#002060" stroke-width="2.202" stroke-miterlimit="8" fill="none" fill-rule="evenodd" transform="matrix(1 0 0 1.01723 83.8889 2099.96)"/><path d="M6.88911 0C6.19628 0 5.63654 0.55974 5.63654 1.25256 5.63654 1.94539 6.19628 2.50513 6.88911 2.50513L7.51539 2.50513 7.51539 3.85164C3.61287 4.45444 0.626283 7.82853 0.626283 11.8994 0.626283 16.3968 4.27046 20.041 8.76795 20.041 13.2655 20.041 16.9097 16.3968 16.9097 11.8994 16.9097 10.2632 16.4282 8.74053 15.5983 7.46842L16.5417 6.52508C17.0309 6.03579 17.0309 5.2412 16.5417 4.75192 16.0524 4.26264 15.2578 4.26264 14.7685 4.75192L13.9231 5.5974C12.8231 4.69712 11.4884 4.07867 10.0205 3.85164L10.0205 2.50513 10.6468 2.50513C11.3396 2.50513 11.8994 1.94539 11.8994 1.25256 11.8994 0.55974 11.3396 0 10.6468 0L8.76795 0 6.88911 0ZM9.70739 7.51539 9.70739 12.5256C9.70739 13.0462 9.28853 13.4651 8.76795 13.4651 8.24736 13.4651 7.82853 13.0462 7.82853 12.5256L7.82853 7.51539C7.82853 6.9948 8.24736 6.57596 8.76795 6.57596 9.28853 6.57596 9.70739 6.9948 9.70739 7.51539Z" fill="#002060" transform="matrix(1 0 0 1.01607 124.085 2148.99)"/><path d="M16.6723 2.2735C16.6723 1.01788 17.6902 -3.36545e-16 18.9458 0 20.2014 -3.36545e-16 21.2193 1.01788 21.2193 2.2735 21.2193 3.52912 20.2014 4.547 18.9458 4.547 17.6902 4.547 16.6723 3.52912 16.6723 2.2735ZM6.06266 6.06266C6.06266 5.22431 6.73997 4.547 7.57832 4.547L15.1282 4.547C17.1933 4.547 18.188 7.07626 16.6818 8.48299L13.1578 11.7701 16.0092 14.6215C16.4355 15.0477 16.6771 15.6255 16.6771 16.2271L16.6771 19.7037C16.6771 20.542 15.9997 21.2193 15.1614 21.2193 14.3231 21.2193 13.6457 20.542 13.6457 19.7037L13.6457 16.5444 9.95602 12.8594C8.69611 11.5996 8.79086 9.52971 10.1597 8.38824L11.1259 7.58306 7.57832 7.58306C6.73997 7.58306 6.06266 6.90575 6.06266 6.06739ZM3.85548 16.7387 7.97145 12.6226C8.18934 13.0963 8.49247 13.5368 8.88562 13.9252L9.91812 14.9578 6.00109 18.8748C5.40903 19.4669 4.44753 19.4669 3.85548 18.8748 3.26342 18.2827 3.26342 17.3212 3.85548 16.7292ZM19.1306 21.243C19.5378 21.3424 19.7842 21.7545 19.68 22.1619L19.661 22.2424C19.3674 23.4218 18.3064 24.2507 17.0891 24.2507L12.8831 24.2507C12.4664 24.2507 12.1253 23.9096 12.1253 23.4928 12.1253 23.076 12.4664 22.735 12.8831 22.735L17.0891 22.735C17.6102 22.735 18.0648 22.3797 18.1927 21.873L18.2117 21.7924C18.3111 21.3851 18.7232 21.1388 19.1306 21.243ZM6.40368 22.6545 6.11003 22.8013C5.08695 23.3128 3.85548 23.1139 3.05028 22.3039L0.222613 19.4811C-0.0710468 19.1874-0.0710468 18.7042 0.222613 18.4106 0.516273 18.1169 0.999392 18.1169 1.29305 18.4106L4.11598 21.2335C4.46174 21.5793 4.99222 21.6645 5.42798 21.4467L5.72164 21.2999C6.09581 21.1104 6.55051 21.2667 6.73997 21.6408 6.92943 22.015 6.77313 22.4698 6.39895 22.6592Z" fill="#002060" transform="matrix(1 0 0 1.01435 150.75 2174.73)"/><path d="M9.08818 0C9.6278 0 10.0619 0.434124 10.0619 0.973736L10.0619 2.84412 10.9951 1.91096C11.3765 1.52958 11.9932 1.52958 12.3705 1.91096 12.7478 2.29234 12.7519 2.90904 12.3705 3.28636L10.0579 5.59899 10.0579 8.7028 12.7438 7.15291 13.5918 3.99638C13.7297 3.47705 14.2652 3.1687 14.7846 3.30665 15.3039 3.44459 15.6123 3.98015 15.4743 4.49948L15.1335 5.7694 16.6388 4.90115C17.1053 4.63337 17.7017 4.7916 17.9695 5.25818 18.2373 5.72476 18.0791 6.32117 17.6124 6.58895L16.1072 7.4572 17.3853 7.79801C17.9046 7.93596 18.2129 8.47148 18.075 8.99081 17.937 9.51014 17.4015 9.81852 16.8822 9.68057L13.7256 8.83265 11.0357 10.3865 13.7216 11.9364 16.8781 11.0884C17.3974 10.9505 17.933 11.2588 18.071 11.7782 18.2089 12.2975 17.9005 12.833 17.3812 12.971L16.1072 13.3159 17.6124 14.1841C18.0791 14.4519 18.2373 15.0483 17.9695 15.5149 17.7017 15.9815 17.1053 16.1397 16.6388 15.8719L15.1335 15.0037 15.4743 16.2817C15.6123 16.801 15.3039 17.3366 14.7846 17.4746 14.2652 17.6124 13.7297 17.3041 13.5918 16.7848L12.7438 13.6283 10.0619 12.0744 10.0619 15.1781 12.3746 17.4908C12.7559 17.8721 12.7559 18.4888 12.3746 18.8661 11.9932 19.2435 11.3765 19.2476 10.9991 18.8661L10.066 17.933 10.066 19.7993C10.066 20.3389 9.63189 20.7731 9.09227 20.7731 8.55265 20.7731 8.1185 20.3389 8.1185 19.7993L8.1185 17.9289 7.18537 18.8621C6.80399 19.2435 6.18729 19.2435 5.80996 18.8621 5.43264 18.4807 5.42858 17.864 5.80996 17.4867L8.12259 15.174 8.12259 12.0744 5.4367 13.6242 4.58874 16.7807C4.45079 17.3 3.91523 17.6084 3.39591 17.4705 2.87658 17.3325 2.56823 16.797 2.70618 16.2777L3.04293 15.0037 1.5377 15.8719C1.07111 16.1397 0.474697 15.9815 0.206919 15.5149-0.0608586 15.0483 0.0973736 14.4519 0.563956 14.1841L2.06919 13.3159 0.791161 12.9751C0.271835 12.8371-0.0365151 12.3015 0.101431 11.7822 0.239377 11.2629 0.774933 10.9545 1.29426 11.0925L4.45079 11.9404 7.14074 10.3865 4.45485 8.83666 1.29426 9.68057C0.774933 9.81852 0.239377 9.51014 0.101431 8.99081-0.0365151 8.47148 0.271835 7.93596 0.791161 7.79801L2.06919 7.4572 0.563956 6.58895C0.0973736 6.32117-0.0608586 5.72476 0.206919 5.25818 0.474697 4.7916 1.07111 4.63337 1.5377 4.90115L3.04293 5.7694 2.70212 4.49136C2.56418 3.97204 2.87252 3.43648 3.39185 3.29853 3.91118 3.16059 4.44674 3.46893 4.58468 3.98826L5.43264 7.1448 8.11449 8.6987 8.11449 5.59493 5.80185 3.28636C5.42047 2.90498 5.42047 2.28829 5.80185 1.91096 6.18323 1.53364 6.79993 1.52958 7.17726 1.91096L8.1104 2.84412 8.1104 0.973736C8.1104 0.434124 8.54455 0 9.08417 0Z" fill="#002060" transform="matrix(1 0 0 1.01555 181.898 2203.97)"/><path d="M5.29329 71.5653C5.29329 60.8463 13.9826 52.1569 24.7017 52.1565L24.7018 61.3757C19.0743 61.3757 14.5124 65.9378 14.5124 71.5653Z" fill="#002060" fill-rule="evenodd" transform="matrix(1 0 0 1.0166 118.472 2151.52)"/><path d="M9.74 71.6729C9.68015 63.4486 16.3383 56.7335 24.6113 56.6738 24.7704 56.6728 24.9295 56.6742 25.0886 56.6781" stroke="#FFFFFF" stroke-width="0.970435" stroke-miterlimit="8" fill="none" fill-rule="evenodd" transform="matrix(1 0 0 1.0166 118.472 2151.52)"/></g></g></g></g></svg>