<svg width="246" height="246" xmlns="http://www.w3.org/2000/svg" xmlns:xlink="http://www.w3.org/1999/xlink" xml:space="preserve" overflow="hidden"><g transform="translate(-43 -2082)"><path d="M45.4999 2205C45.4999 2138.45 99.4495 2084.5 166 2084.5 232.55 2084.5 286.5 2138.45 286.5 2205 286.5 2271.55 232.55 2325.5 166 2325.5 99.4495 2325.5 45.4999 2271.55 45.4999 2205Z" stroke="#172C51" stroke-width="4.58333" stroke-miterlimit="8" fill="#2F5597" fill-rule="evenodd"/><path d="M100 2203C100 2165.44 130.221 2135 167.5 2135 204.779 2135 235 2165.44 235 2203 235 2240.56 204.779 2271 167.5 2271 130.221 2271 100 2240.56 100 2203Z" fill="#FFFFFF" fill-rule="evenodd"/><g><g><g><path d="M34.8474 71.3542 61.4768 71.3542 61.4768 98.2997 34.8474 98.2997Z" fill="#2F5597" transform="matrix(1 0 0 1.00596 90.417 2119.96)"/><path d="M91.9782 70.9591 118.608 70.9591 118.608 98.6158 91.9782 98.6158Z" fill="#2F5597" transform="matrix(1 0 0 1.00596 90.417 2119.96)"/><path d="M62.188 45.515 91.109 45.515 91.109 70.0109 62.188 70.0109Z" fill="#2F5597" transform="matrix(1 0 0 1.00596 90.417 2119.96)"/><path d="M62.188 98.8528 91.8992 98.8528 91.8992 122.638 62.188 122.638Z" fill="#2F5597" transform="matrix(1 0 0 1.00596 90.417 2119.96)"/><path d="M34.6894 49.2285C34.6894 46.8284 36.635 44.8828 39.035 44.8828L114.499 44.8828C116.899 44.8828 118.845 46.8284 118.845 49.2285L118.845 118.766C118.845 121.166 116.899 123.112 114.499 123.112L39.035 123.112C36.635 123.112 34.6894 121.166 34.6894 118.766Z" stroke="#002060" stroke-width="2.17302" stroke-miterlimit="8" fill="none" fill-rule="evenodd" transform="matrix(1 0 0 1.00596 90.417 2119.96)"/><path d="M61.3978 44.8038 61.9411 122.761" stroke="#002060" stroke-width="2.17302" stroke-miterlimit="8" fill="none" fill-rule="evenodd" transform="matrix(1 0 0 1.00596 90.417 2119.96)"/><path d="M91.6621 45.1989 92.2057 123.156" stroke="#002060" stroke-width="2.17302" stroke-miterlimit="8" fill="none" fill-rule="evenodd" transform="matrix(1 0 0 1.00596 90.417 2119.96)"/><path d="M34.8474 70.8011 119.414 70.8011" stroke="#002060" stroke-width="2.17302" stroke-miterlimit="8" fill="none" fill-rule="evenodd" transform="matrix(1 0 0 1.00596 90.417 2119.96)"/><path d="M34.6103 98.6948 119.177 98.6948" stroke="#002060" stroke-width="2.17302" stroke-miterlimit="8" fill="none" fill-rule="evenodd" transform="matrix(1 0 0 1.00596 90.417 2119.96)"/><path d="M6.79846 0C6.11475 0 5.56237 0.552375 5.56237 1.23609 5.56237 1.91979 6.11475 2.47217 6.79846 2.47217L7.4165 2.47217 7.4165 3.80096C3.56533 4.39582 0.618042 7.72552 0.618042 11.7428 0.618042 16.1811 4.21428 19.7774 8.65259 19.7774 13.0909 19.7774 16.6872 16.1811 16.6872 11.7428 16.6872 10.1282 16.212 8.62556 15.3931 7.37015L16.324 6.43922C16.8069 5.95638 16.8069 5.17224 16.324 4.68939 15.8412 4.20655 15.0571 4.20655 14.5742 4.68939L13.7398 5.52375C12.6544 4.63531 11.3372 4.02499 9.88868 3.80096L9.88868 2.47217 10.5067 2.47217C11.1904 2.47217 11.7428 1.91979 11.7428 1.23609 11.7428 0.552375 11.1904 0 10.5067 0L8.65259 0 6.79846 0ZM9.57964 7.4165 9.57964 12.3609C9.57964 12.8746 9.16637 13.2879 8.65259 13.2879 8.1388 13.2879 7.72552 12.8746 7.72552 12.3609L7.72552 7.4165C7.72552 6.90276 8.1388 6.48944 8.65259 6.48944 9.16637 6.48944 9.57964 6.90276 9.57964 7.4165Z" fill="#002060" transform="matrix(1 0 0 1.00882 130.085 2167.82)"/><path d="M16.4529 2.24358C16.4529 1.00448 17.4574 -3.32117e-16 18.6965 0 19.9356 -3.32117e-16 20.9401 1.00448 20.9401 2.24358 20.9401 3.48268 19.9356 4.48716 18.6965 4.48716 17.4574 4.48716 16.4529 3.48268 16.4529 2.24358ZM5.98288 5.98288C5.98288 5.15556 6.65128 4.48716 7.4786 4.48716L14.9292 4.48716C16.9671 4.48716 17.9486 6.98315 16.4623 8.37136L12.9848 11.6152 15.7985 14.429C16.2192 14.8497 16.4576 15.42 16.4576 16.0136L16.4576 19.4444C16.4576 20.2717 15.7892 20.9401 14.9619 20.9401 14.1346 20.9401 13.4662 20.2717 13.4662 19.4444L13.4662 16.3268 9.825 12.6903C8.58167 11.447 8.67518 9.40438 10.026 8.27785L10.9795 7.48328 7.4786 7.48328C6.65128 7.48328 5.98288 6.81488 5.98288 5.98756ZM3.80474 16.5184 7.86656 12.4565C8.08156 12.924 8.38071 13.3586 8.76868 13.7419L9.7876 14.7609 5.92212 18.6264C5.33786 19.2107 4.38901 19.2107 3.80474 18.6264 3.22048 18.0422 3.22048 17.0933 3.80474 16.509ZM18.8788 20.9635C19.2808 21.0616 19.5238 21.4682 19.421 21.8702L19.4023 21.9497C19.1125 23.1136 18.0655 23.9315 16.8643 23.9315L12.7137 23.9315C12.3023 23.9315 11.9658 23.595 11.9658 23.1837 11.9658 22.7724 12.3023 22.4358 12.7137 22.4358L16.8643 22.4358C17.3784 22.4358 17.8272 22.0852 17.9533 21.5851L17.972 21.5056C18.0702 21.1037 18.4768 20.8606 18.8788 20.9635ZM6.31942 22.3563 6.02963 22.5013C5.02002 23.006 3.80474 22.8098 3.01014 22.0105L0.219684 19.2247C-0.0701119 18.9349-0.0701119 18.4581 0.219684 18.1683 0.50948 17.8785 0.98624 17.8785 1.27603 18.1683L4.06182 20.9541C4.40303 21.2953 4.92653 21.3795 5.35655 21.1644L5.64635 21.0196C6.0156 20.8326 6.46432 20.9868 6.65128 21.3561 6.83825 21.7254 6.684 22.1741 6.31474 22.361Z" fill="#002060" transform="matrix(1 0 0 1.00311 156.319 2193.01)"/><path d="M8.96858 0C9.5011 0 9.92953 0.428411 9.92953 0.960922L9.92953 2.80669 10.8504 1.88581C11.2268 1.50945 11.8354 1.50945 12.2077 1.88581 12.5801 2.26217 12.5841 2.87076 12.2077 3.24312L9.9255 5.52531 9.9255 8.58827 12.5761 7.05878 13.4129 3.94379C13.549 3.43129 14.0775 3.127 14.59 3.26313 15.1025 3.39926 15.4068 3.92777 15.2707 4.44027L14.9343 5.69347 16.4198 4.83665C16.8802 4.57239 17.4688 4.72855 17.733 5.18898 17.9973 5.64943 17.8412 6.23799 17.3807 6.50224L15.8953 7.35907 17.1565 7.69539C17.669 7.83152 17.9733 8.36 17.8371 8.87249 17.701 9.38498 17.1725 9.68931 16.66 9.55318L13.545 8.71641 10.8905 10.2499 13.541 11.7793 16.656 10.9425C17.1685 10.8064 17.697 11.1107 17.8332 11.6232 17.9693 12.1357 17.665 12.6641 17.1525 12.8003L15.8953 13.1406 17.3807 13.9974C17.8412 14.2617 17.9973 14.8503 17.733 15.3107 17.4688 15.7712 16.8802 15.9273 16.4198 15.663L14.9343 14.8062 15.2707 16.0674C15.4068 16.5799 15.1025 17.1085 14.59 17.2446 14.0775 17.3807 13.549 17.0764 13.4129 16.5639L12.5761 13.4489 9.92953 11.9155 9.92953 14.9784 12.2117 17.2606C12.5881 17.6369 12.5881 18.2455 12.2117 18.6178 11.8354 18.9902 11.2268 18.9943 10.8544 18.6178L9.93357 17.697 9.93357 19.5387C9.93357 20.0713 9.50513 20.4997 8.97262 20.4997 8.4401 20.4997 8.01166 20.0713 8.01166 19.5387L8.01166 17.693 7.09081 18.6139C6.71445 18.9902 6.10586 18.9902 5.73351 18.6139 5.36115 18.2375 5.35714 17.629 5.73351 17.2566L8.0157 14.9744 8.0157 11.9155 5.36515 13.4449 4.52835 16.5599C4.39222 17.0724 3.86371 17.3767 3.35122 17.2406 2.83873 17.1044 2.53444 16.5759 2.67056 16.0635L3.00288 14.8062 1.51746 15.663C1.05702 15.9273 0.46845 15.7712 0.204196 15.3107-0.0600577 14.8503 0.0960921 14.2617 0.556534 13.9974L2.04196 13.1406 0.78075 12.8043C0.268258 12.6682-0.0360346 12.1396 0.100096 11.6271 0.236227 11.1146 0.764735 10.8104 1.27723 10.9465L4.39222 11.7833 7.04677 10.2499 4.39622 8.72037 1.27723 9.55318C0.764735 9.68931 0.236227 9.38498 0.100096 8.87249-0.0360346 8.36 0.268258 7.83152 0.78075 7.69539L2.04196 7.35907 0.556534 6.50224C0.0960921 6.23799-0.0600577 5.64943 0.204196 5.18898 0.46845 4.72855 1.05702 4.57239 1.51746 4.83665L3.00288 5.69347 2.66656 4.43226C2.53043 3.91976 2.83472 3.39126 3.34721 3.25512 3.85971 3.11899 4.38822 3.42328 4.52435 3.93578L5.36115 7.05077 8.00771 8.58423 8.00771 5.52131 5.7255 3.24312C5.34914 2.86675 5.34914 2.25817 5.7255 1.88581 6.10186 1.51346 6.71045 1.50945 7.08281 1.88581L8.00367 2.80669 8.00367 0.960922C8.00367 0.428411 8.4321 0 8.96462 0Z" fill="#002060" transform="matrix(1 0 0 1.0043 187.215 2221.55)"/><path d="M5.22363 70.6235C5.22363 60.0456 13.7986 51.4705 24.3766 51.4701L24.3768 60.568C18.8233 60.568 14.3214 65.0701 14.3214 70.6235Z" fill="#002060" fill-rule="evenodd" transform="matrix(1 0 0 1.00533 124.624 2170.2)"/><path d="M9.61183 70.7297C9.55276 62.6136 16.1233 55.9869 24.2874 55.928 24.4444 55.927 24.6015 55.9284 24.7584 55.9322" stroke="#FFFFFF" stroke-width="0.957664" stroke-miterlimit="8" fill="none" fill-rule="evenodd" transform="matrix(1 0 0 1.00533 124.624 2170.2)"/></g></g></g><path d="M80.0001 2203.5C80.0001 2155.18 118.951 2116 167 2116 215.049 2116 254 2155.18 254 2203.5 254 2251.83 215.049 2291 167 2291 118.951 2291 80.0001 2251.83 80.0001 2203.5ZM89.3003 2203.5C89.3003 2246.69 124.088 2281.7 167 2281.7 209.912 2281.7 244.7 2246.69 244.7 2203.5 244.7 2160.31 209.912 2125.3 167 2125.3 124.088 2125.3 89.3003 2160.31 89.3003 2203.5Z" fill="#FFFFFF" fill-rule="evenodd"/></g></svg>